<svg width="20" height="20" viewBox="0 0 20 20" fill="none" xmlns="http://www.w3.org/2000/svg">
<path d="M3.41002 17.3183L3.02412 18.0757H3.02412L3.41002 17.3183ZM2.68166 16.59L1.9243 16.9759L1.9243 16.9759L2.68166 16.59ZM13.1517 16.59L13.909 16.9759V16.9759L13.1517 16.59ZM12.4233 17.3183L12.8092 18.0757H12.8092L12.4233 17.3183ZM12.4233 6.84832L12.0374 7.60568V7.60568L12.4233 6.84832ZM13.1517 7.57668L12.3943 7.96257L13.1517 7.57668ZM3.41002 6.84832L3.79591 7.60568H3.79591L3.41002 6.84832ZM2.68166 7.57668L1.9243 7.19079L2.68166 7.57668ZM17.3183 12.4233L18.0757 12.8092V12.8092L17.3183 12.4233ZM16.59 13.1517L16.9759 13.909H16.9759L16.59 13.1517ZM16.59 2.68166L16.9759 1.9243L16.9759 1.9243L16.59 2.68166ZM17.3183 3.41002L18.0757 3.02412V3.02412L17.3183 3.41002ZM7.57668 2.68166L7.19079 1.9243L7.57668 2.68166ZM6.84832 3.41002L7.60568 3.79591V3.79591L6.84832 3.41002ZM8.76667 10C8.76667 9.53056 8.38611 9.15 7.91667 9.15C7.44722 9.15 7.06667 9.53056 7.06667 10H8.76667ZM7.06667 14.1667C7.06667 14.6361 7.44722 15.0167 7.91667 15.0167C8.38611 15.0167 8.76667 14.6361 8.76667 14.1667H7.06667ZM10 12.9333C10.4694 12.9333 10.85 12.5528 10.85 12.0833C10.85 11.6139 10.4694 11.2333 10 11.2333V12.9333ZM5.83333 11.2333C5.36389 11.2333 4.98333 11.6139 4.98333 12.0833C4.98333 12.5528 5.36389 12.9333 5.83333 12.9333V11.2333ZM10.6667 16.65H5.16667V18.35H10.6667V16.65ZM3.35 14.8333V9.33333H1.65V14.8333H3.35ZM5.16667 16.65C4.68593 16.65 4.3765 16.6493 4.14122 16.6301C3.91587 16.6117 3.83437 16.5806 3.79591 16.561L3.02412 18.0757C3.34218 18.2378 3.6723 18.2975 4.00279 18.3245C4.32335 18.3507 4.71398 18.35 5.16667 18.35V16.65ZM1.65 14.8333C1.65 15.286 1.64934 15.6767 1.67553 15.9972C1.70253 16.3277 1.76224 16.6578 1.9243 16.9759L3.43901 16.2041C3.41941 16.1656 3.3883 16.0841 3.36988 15.8588C3.35066 15.6235 3.35 15.3141 3.35 14.8333H1.65ZM3.79591 16.561C3.64224 16.4827 3.51731 16.3578 3.43901 16.2041L1.9243 16.9759C2.16558 17.4494 2.55058 17.8344 3.02412 18.0757L3.79591 16.561ZM12.4833 14.8333C12.4833 15.3141 12.4827 15.6235 12.4634 15.8588C12.445 16.0841 12.4139 16.1656 12.3943 16.2041L13.909 16.9759C14.0711 16.6578 14.1308 16.3277 14.1578 15.9972C14.184 15.6767 14.1833 15.286 14.1833 14.8333H12.4833ZM10.6667 18.35C11.1194 18.35 11.51 18.3507 11.8305 18.3245C12.161 18.2975 12.4912 18.2378 12.8092 18.0757L12.0374 16.561C11.999 16.5806 11.9175 16.6117 11.6921 16.6301C11.4568 16.6493 11.1474 16.65 10.6667 16.65V18.35ZM12.3943 16.2041C12.316 16.3578 12.1911 16.4827 12.0374 16.561L12.8092 18.0757C13.2827 17.8344 13.6678 17.4494 13.909 16.9759L12.3943 16.2041ZM10.6667 7.51667C11.1474 7.51667 11.4568 7.51733 11.6921 7.53655C11.9175 7.55496 11.999 7.58608 12.0374 7.60568L12.8092 6.09097C12.4912 5.92891 12.161 5.8692 11.8305 5.8422C11.51 5.81601 11.1194 5.81667 10.6667 5.81667V7.51667ZM14.1833 9.33333C14.1833 8.88065 14.184 8.49001 14.1578 8.16945C14.1308 7.83897 14.0711 7.50885 13.909 7.19079L12.3943 7.96257C12.4139 8.00104 12.445 8.08253 12.4634 8.30789C12.4827 8.54317 12.4833 8.8526 12.4833 9.33333H14.1833ZM12.0374 7.60568C12.1911 7.68397 12.316 7.80891 12.3943 7.96257L13.909 7.19079C13.6678 6.71725 13.2828 6.33225 12.8092 6.09097L12.0374 7.60568ZM5.16667 5.81667C4.71398 5.81667 4.32335 5.81601 4.00279 5.8422C3.6723 5.8692 3.34218 5.92891 3.02412 6.09097L3.79591 7.60568C3.83437 7.58608 3.91586 7.55496 4.14122 7.53655C4.3765 7.51733 4.68593 7.51667 5.16667 7.51667V5.81667ZM3.35 9.33333C3.35 8.8526 3.35066 8.54317 3.36988 8.30789C3.3883 8.08253 3.41941 8.00104 3.43901 7.96257L1.9243 7.19079C1.76224 7.50885 1.70253 7.83897 1.67553 8.16945C1.64934 8.49001 1.65 8.88065 1.65 9.33333H3.35ZM3.02412 6.09097C2.55058 6.33225 2.16558 6.71725 1.9243 7.19079L3.43901 7.96257C3.51731 7.80891 3.64224 7.68397 3.79591 7.60568L3.02412 6.09097ZM9.33333 3.35H14.8333V1.65H9.33333V3.35ZM16.65 5.16667V10.6667H18.35V5.16667H16.65ZM16.65 10.6667C16.65 11.1474 16.6493 11.4568 16.6301 11.6921C16.6117 11.9175 16.5806 11.999 16.561 12.0374L18.0757 12.8092C18.2378 12.4912 18.2975 12.161 18.3245 11.8305C18.3507 11.51 18.35 11.1194 18.35 10.6667H16.65ZM14.8333 14.1833C15.286 14.1833 15.6767 14.184 15.9972 14.1578C16.3277 14.1308 16.6578 14.0711 16.9759 13.909L16.2041 12.3943C16.1656 12.4139 16.0841 12.445 15.8588 12.4634C15.6235 12.4827 15.3141 12.4833 14.8333 12.4833V14.1833ZM16.561 12.0374C16.4827 12.1911 16.3578 12.316 16.2041 12.3943L16.9759 13.909C17.4494 13.6678 17.8344 13.2827 18.0757 12.8092L16.561 12.0374ZM14.8333 3.35C15.3141 3.35 15.6235 3.35066 15.8588 3.36988C16.0841 3.3883 16.1656 3.41941 16.2041 3.43901L16.9759 1.9243C16.6578 1.76224 16.3277 1.70253 15.9972 1.67553C15.6767 1.64934 15.286 1.65 14.8333 1.65V3.35ZM18.35 5.16667C18.35 4.71398 18.3507 4.32335 18.3245 4.00279C18.2975 3.6723 18.2378 3.34218 18.0757 3.02412L16.561 3.79591C16.5806 3.83437 16.6117 3.91586 16.6301 4.14122C16.6493 4.3765 16.65 4.68593 16.65 5.16667H18.35ZM16.2041 3.43901C16.3578 3.51731 16.4827 3.64224 16.561 3.79591L18.0757 3.02412C17.8344 2.55058 17.4494 2.16558 16.9759 1.9243L16.2041 3.43901ZM9.33333 1.65C8.88065 1.65 8.49001 1.64934 8.16945 1.67553C7.83897 1.70253 7.50885 1.76224 7.19079 1.9243L7.96257 3.43901C8.00104 3.41941 8.08253 3.3883 8.30789 3.36988C8.54317 3.35066 8.8526 3.35 9.33333 3.35V1.65ZM7.51667 5.16667C7.51667 4.68593 7.51733 4.3765 7.53655 4.14122C7.55496 3.91587 7.58608 3.83437 7.60568 3.79591L6.09097 3.02412C5.92891 3.34218 5.8692 3.6723 5.8422 4.00279C5.81601 4.32335 5.81667 4.71398 5.81667 5.16667H7.51667ZM7.19079 1.9243C6.71725 2.16558 6.33225 2.55058 6.09097 3.02412L7.60568 3.79591C7.68397 3.64224 7.80891 3.51731 7.96257 3.43901L7.19079 1.9243ZM7.51667 6.66667V5.16667H5.81667V6.66667H7.51667ZM5.16667 7.51667H6.66667V5.81667H5.16667V7.51667ZM6.66667 7.51667H10.6667V5.81667H6.66667V7.51667ZM14.8333 12.4833H13.3333V14.1833H14.8333V12.4833ZM12.4833 9.33333V13.3333H14.1833V9.33333H12.4833ZM12.4833 13.3333V14.8333H14.1833V13.3333H12.4833ZM7.06667 10V12.0833H8.76667V10H7.06667ZM7.06667 12.0833V14.1667H8.76667V12.0833H7.06667ZM10 11.2333H7.91667V12.9333H10V11.2333ZM7.91667 11.2333H5.83333V12.9333H7.91667V11.2333Z" fill="#026735"/>
</svg>
