<svg width="24" height="24" viewBox="0 0 24 24" fill="none" xmlns="http://www.w3.org/2000/svg">
<path d="M5.01193 16.9642L5.96062 17.2804H5.96062L5.01193 16.9642ZM5.76112 14.7166L4.81244 14.4004H4.81244L5.76112 14.7166ZM6.53416 13.4658L7.24127 14.1729L7.24127 14.1729L6.53416 13.4658ZM14 5.99994L13.2929 5.29283V5.29283L14 5.99994ZM18 9.99994L18.7071 10.707H18.7071L18 9.99994ZM10.5342 17.4658L9.82706 16.7587L9.82706 16.7587L10.5342 17.4658ZM9.28335 18.2388L9.59958 19.1875H9.59958L9.28335 18.2388ZM7.03579 18.988L7.35202 19.9367L7.35202 19.9367L7.03579 18.988ZM10.1241 17.8485L9.52188 17.0502L9.52188 17.0502L10.1241 17.8485ZM9.80905 18.0432L9.36435 17.1476L9.80905 18.0432ZM18.9636 7.11191L18.0676 7.55593V7.55593L18.9636 7.11191ZM18.9636 8.88797L18.0676 8.44396V8.44396L18.9636 8.88797ZM15.112 5.03633L15.556 5.93235V5.93235L15.112 5.03633ZM16.888 5.03633L16.444 5.93235V5.93235L16.888 5.03633ZM5.95671 14.1909L6.85239 14.6356L6.85239 14.6356L5.95671 14.1909ZM6.15144 13.8758L5.35312 13.2736L5.35312 13.2736L6.15144 13.8758ZM4.63924 18.7547L3.69733 19.0906L4.63924 18.7547ZM5.24526 19.3607L4.90938 20.3026L4.90938 20.3026L5.24526 19.3607ZM13.7071 6.29287C13.3166 5.90234 12.6834 5.90234 12.2929 6.29287C11.9024 6.68339 11.9024 7.31656 12.2929 7.70708L13.7071 6.29287ZM16.2929 11.7071C16.6834 12.0976 17.3166 12.0976 17.7071 11.7071C18.0976 11.3166 18.0976 10.6834 17.7071 10.2929L16.2929 11.7071ZM5.96062 17.2804L6.7098 15.0328L4.81244 14.4004L4.06325 16.6479L5.96062 17.2804ZM7.24127 14.1729L14.7071 6.70705L13.2929 5.29283L5.82706 12.7587L7.24127 14.1729ZM17.2929 9.29284L9.82706 16.7587L11.2413 18.1729L18.7071 10.707L17.2929 9.29284ZM8.96712 17.2901L6.71956 18.0393L7.35202 19.9367L9.59958 19.1875L8.96712 17.2901ZM9.82706 16.7587C9.60897 16.9768 9.56477 17.0178 9.52188 17.0502L10.7264 18.6468C10.9059 18.5114 11.0609 18.3532 11.2413 18.1729L9.82706 16.7587ZM9.59958 19.1875C9.84153 19.1069 10.0523 19.0389 10.2538 18.9389L9.36435 17.1476C9.31622 17.1714 9.25972 17.1926 8.96712 17.2901L9.59958 19.1875ZM9.52188 17.0502C9.47249 17.0875 9.41976 17.12 9.36435 17.1476L10.2538 18.9389C10.42 18.8564 10.5782 18.7586 10.7264 18.6468L9.52188 17.0502ZM17.2929 6.70705C17.8952 7.30939 18.0131 7.44595 18.0676 7.55593L19.8596 6.6679C19.6227 6.18969 19.1953 5.78099 18.7071 5.29284L17.2929 6.70705ZM18.7071 10.707C19.1953 10.2189 19.6227 9.8102 19.8596 9.33199L18.0676 8.44396C18.0131 8.55394 17.8952 8.69049 17.2929 9.29284L18.7071 10.707ZM18.0676 7.55593C18.2062 7.8357 18.2062 8.16418 18.0676 8.44396L19.8596 9.33199C20.2756 8.49266 20.2756 7.50723 19.8596 6.66789L18.0676 7.55593ZM14.7071 6.70705C15.3095 6.10471 15.446 5.98685 15.556 5.93235L14.668 4.14031C14.1898 4.37728 13.7811 4.80468 13.2929 5.29283L14.7071 6.70705ZM18.7071 5.29284C18.219 4.80468 17.8103 4.37728 17.3321 4.14031L16.444 5.93235C16.554 5.98685 16.6906 6.10471 17.2929 6.70705L18.7071 5.29284ZM15.556 5.93235C15.8358 5.79371 16.1642 5.79371 16.444 5.93235L17.3321 4.14031C16.4927 3.72439 15.5073 3.72439 14.668 4.14031L15.556 5.93235ZM6.7098 15.0328C6.80734 14.7402 6.8285 14.6837 6.85239 14.6356L5.06104 13.7462C4.96102 13.9476 4.89309 14.1584 4.81244 14.4004L6.7098 15.0328ZM5.82706 12.7587C5.64672 12.939 5.48857 13.094 5.35312 13.2736L6.94975 14.4781C6.98211 14.4352 7.02319 14.391 7.24127 14.1729L5.82706 12.7587ZM6.85239 14.6356C6.8799 14.5802 6.9125 14.5275 6.94975 14.4781L5.35312 13.2736C5.24135 13.4217 5.14357 13.58 5.06104 13.7462L6.85239 14.6356ZM4.06325 16.6479C3.9067 17.1176 3.76639 17.5353 3.68652 17.8752C3.61013 18.2003 3.53797 18.6436 3.69733 19.0906L5.58114 18.4188C5.62466 18.5408 5.57599 18.5775 5.63349 18.3328C5.6875 18.1029 5.79146 17.7878 5.96062 17.2804L4.06325 16.6479ZM6.71956 18.0393C6.21211 18.2085 5.89706 18.3124 5.6672 18.3665C5.42249 18.424 5.45911 18.3753 5.58114 18.4188L4.90938 20.3026C5.3563 20.462 5.79963 20.3898 6.1247 20.3134C6.4646 20.2336 6.88238 20.0932 7.35202 19.9367L6.71956 18.0393ZM3.69733 19.0906C3.89897 19.656 4.34394 20.101 4.90938 20.3026L5.58114 18.4188L5.58114 18.4188L3.69733 19.0906ZM12.2929 7.70708L16.2929 11.7071L17.7071 10.2929L13.7071 6.29287L12.2929 7.70708Z" fill="#525D6A"/>
</svg>
