<svg width="24" height="24" viewBox="0 0 24 24" fill="none" xmlns="http://www.w3.org/2000/svg">
<path d="M5.01149 16.9642L5.96017 17.2804H5.96017L5.01149 16.9642ZM5.76068 14.7167L4.81199 14.4004H4.81199L5.76068 14.7167ZM6.53372 13.4658L7.24083 14.173L7.24083 14.1729L6.53372 13.4658ZM13.9996 6L13.2925 5.29289V5.29289L13.9996 6ZM17.9996 10L18.7067 10.7071H18.7067L17.9996 10ZM10.5337 17.4658L9.82662 16.7587L9.82661 16.7587L10.5337 17.4658ZM9.28291 18.2389L9.59914 19.1876H9.59914L9.28291 18.2389ZM7.03535 18.9881L7.35158 19.9368L7.35158 19.9368L7.03535 18.9881ZM10.1237 17.8486L9.52144 17.0503L9.52144 17.0503L10.1237 17.8486ZM9.80861 18.0433L9.3639 17.1476L9.80861 18.0433ZM18.9632 7.11197L18.0672 7.55599V7.55599L18.9632 7.11197ZM18.9632 8.88803L18.0672 8.44402V8.44402L18.9632 8.88803ZM15.1115 5.03639L15.5555 5.93241V5.93241L15.1115 5.03639ZM16.8876 5.03639L16.4436 5.93241V5.93241L16.8876 5.03639ZM5.95627 14.191L6.85195 14.6357L6.85195 14.6357L5.95627 14.191ZM6.151 13.8759L5.35268 13.2736L5.35268 13.2736L6.151 13.8759ZM4.6388 18.7547L3.69689 19.0906L4.6388 18.7547ZM5.24482 19.3608L4.90894 20.3027L4.90894 20.3027L5.24482 19.3608ZM13.7067 6.29293C13.3161 5.90241 12.683 5.90241 12.2924 6.29293C11.9019 6.68345 11.9019 7.31662 12.2924 7.70714L13.7067 6.29293ZM16.2924 11.7071C16.683 12.0977 17.3161 12.0977 17.7067 11.7071C18.0972 11.3166 18.0972 10.6835 17.7067 10.2929L16.2924 11.7071ZM5.96017 17.2804L6.70936 15.0329L4.81199 14.4004L4.06281 16.648L5.96017 17.2804ZM7.24083 14.1729L14.7067 6.70711L13.2925 5.29289L5.82662 12.7587L7.24083 14.1729ZM17.2925 9.2929L9.82662 16.7587L11.2408 18.1729L18.7067 10.7071L17.2925 9.2929ZM8.96668 17.2902L6.71912 18.0394L7.35158 19.9368L9.59914 19.1876L8.96668 17.2902ZM9.82661 16.7587C9.60853 16.9768 9.56433 17.0179 9.52144 17.0503L10.7259 18.6469C10.9055 18.5114 11.0605 18.3533 11.2408 18.1729L9.82661 16.7587ZM9.59914 19.1876C9.84109 19.1069 10.0519 19.039 10.2533 18.939L9.3639 17.1476C9.31578 17.1715 9.25928 17.1927 8.96668 17.2902L9.59914 19.1876ZM9.52144 17.0503C9.47205 17.0875 9.41931 17.1201 9.3639 17.1476L10.2533 18.939C10.4195 18.8564 10.5778 18.7587 10.7259 18.6469L9.52144 17.0503ZM17.2925 6.70711C17.8948 7.30945 18.0127 7.44601 18.0672 7.55599L19.8592 6.66796C19.6222 6.18975 19.1948 5.78105 18.7067 5.2929L17.2925 6.70711ZM18.7067 10.7071C19.1948 10.219 19.6222 9.81026 19.8592 9.33205L18.0672 8.44402C18.0127 8.554 17.8948 8.69055 17.2925 9.2929L18.7067 10.7071ZM18.0672 7.55599C18.2058 7.83576 18.2058 8.16424 18.0672 8.44402L19.8592 9.33205C20.2751 8.49272 20.2751 7.50729 19.8592 6.66796L18.0672 7.55599ZM14.7067 6.70711C15.309 6.10477 15.4456 5.98691 15.5555 5.93241L14.6675 4.14037C14.1893 4.37734 13.7806 4.80474 13.2925 5.29289L14.7067 6.70711ZM18.7067 5.2929C18.2185 4.80474 17.8098 4.37735 17.3316 4.14037L16.4436 5.93241C16.5536 5.98691 16.6901 6.10477 17.2925 6.70711L18.7067 5.2929ZM15.5555 5.93241C15.8353 5.79377 16.1638 5.79377 16.4436 5.93241L17.3316 4.14037C16.4923 3.72445 15.5068 3.72445 14.6675 4.14037L15.5555 5.93241ZM6.70936 15.0329C6.80689 14.7403 6.82806 14.6838 6.85195 14.6357L5.06059 13.7463C4.96058 13.9477 4.89265 14.1585 4.81199 14.4004L6.70936 15.0329ZM5.82662 12.7587C5.64628 12.9391 5.48813 13.0941 5.35268 13.2736L6.94931 14.4781C6.98167 14.4352 7.02274 14.391 7.24083 14.173L5.82662 12.7587ZM6.85195 14.6357C6.87946 14.5803 6.91205 14.5275 6.94931 14.4781L5.35268 13.2736C5.24091 13.4218 5.14313 13.58 5.06059 13.7463L6.85195 14.6357ZM4.06281 16.648C3.90626 17.1176 3.76595 17.5354 3.68608 17.8753C3.60969 18.2004 3.53752 18.6437 3.69689 19.0906L5.5807 18.4189C5.62422 18.5409 5.57555 18.5775 5.63305 18.3328C5.68706 18.1029 5.79102 17.7879 5.96017 17.2804L4.06281 16.648ZM6.71912 18.0394C6.21166 18.2085 5.89662 18.3125 5.66675 18.3665C5.42205 18.424 5.45867 18.3753 5.5807 18.4189L4.90894 20.3027C5.35585 20.462 5.79919 20.3899 6.12426 20.3135C6.46416 20.2336 6.88194 20.0933 7.35158 19.9368L6.71912 18.0394ZM3.69689 19.0906C3.89853 19.6561 4.34349 20.101 4.90894 20.3027L5.5807 18.4189L5.5807 18.4189L3.69689 19.0906ZM12.2924 7.70714L16.2924 11.7071L17.7067 10.2929L13.7067 6.29293L12.2924 7.70714Z" fill="#525D6A"/>
</svg>
