<svg width="20" height="20" viewBox="0 0 20 20" fill="none" xmlns="http://www.w3.org/2000/svg">
<path d="M2.4246 9.02352L3.10606 9.33675L3.10606 9.33675L2.4246 9.02352ZM17.5761 10.9764L16.8947 10.6632L17.5761 10.9764ZM2.4246 10.9764L1.74314 11.2897L1.74314 11.2897L2.4246 10.9764ZM17.5761 9.02351L16.8947 9.33674V9.33675L17.5761 9.02351ZM14.9279 4.86819C14.5801 4.64321 14.1158 4.74277 13.8908 5.09056C13.6659 5.43835 13.7654 5.90267 14.1132 6.12765L14.9279 4.86819ZM5.92315 13.8952C5.57411 13.6722 5.11035 13.7743 4.88732 14.1234C4.66428 14.4724 4.76643 14.9362 5.11547 15.1592L5.92315 13.8952ZM2.73409 12.9513C2.98289 13.2825 3.45305 13.3492 3.78421 13.1004C4.11537 12.8516 4.18213 12.3814 3.93333 12.0503L2.73409 12.9513ZM11.5178 5.06835C11.9238 5.15075 12.3196 4.88848 12.402 4.48254C12.4844 4.07661 12.2222 3.68073 11.8162 3.59833L11.5178 5.06835ZM17.1974 3.86364C17.4903 3.57075 17.4903 3.09588 17.1974 2.80298C16.9045 2.51009 16.4296 2.51009 16.1367 2.80298L17.1974 3.86364ZM2.80337 16.1363C2.51047 16.4292 2.51047 16.9041 2.80337 17.197C3.09626 17.4899 3.57113 17.4899 3.86403 17.197L2.80337 16.1363ZM10.0004 3.41665C6.33516 3.41665 3.17854 5.58747 1.74314 8.71028L3.10606 9.33675C4.30584 6.72654 6.94253 4.91665 10.0004 4.91665V3.41665ZM10.0004 16.5833C13.6656 16.5833 16.8222 14.4125 18.2576 11.2897L16.8947 10.6632C15.6949 13.2734 13.0582 15.0833 10.0004 15.0833V16.5833ZM1.74314 8.71028C1.36711 9.52837 1.36711 10.4716 1.74314 11.2897L3.10606 10.6632C2.91281 10.2428 2.91281 9.75719 3.10606 9.33675L1.74314 8.71028ZM16.8947 9.33675C17.0879 9.75718 17.0879 10.2428 16.8947 10.6632L18.2576 11.2897C18.6336 10.4716 18.6336 9.52837 18.2576 8.71028L16.8947 9.33675ZM18.2576 8.71028C17.5331 7.13413 16.3714 5.80194 14.9279 4.86819L14.1132 6.12765C15.3195 6.90799 16.2901 8.02149 16.8947 9.33674L18.2576 8.71028ZM5.11547 15.1592C6.52645 16.0608 8.20354 16.5833 10.0004 16.5833V15.0833C8.49819 15.0833 7.10014 14.6473 5.92315 13.8952L5.11547 15.1592ZM1.74314 11.2897C2.01478 11.8806 2.34786 12.4372 2.73409 12.9513L3.93333 12.0503C3.61064 11.6208 3.33263 11.1561 3.10606 10.6632L1.74314 11.2897ZM11.8162 3.59833C11.2289 3.47911 10.6215 3.41665 10.0004 3.41665V4.91665C10.5208 4.91665 11.0282 4.96895 11.5178 5.06835L11.8162 3.59833ZM7.70227 12.2981C8.97148 13.5673 11.0293 13.5673 12.2985 12.2981L11.2378 11.2374C10.5544 11.9208 9.44635 11.9208 8.76293 11.2374L7.70227 12.2981ZM12.2985 12.2981C13.5677 11.0289 13.5677 8.97109 12.2985 7.70188L11.2378 8.76254C11.9212 9.44596 11.9212 10.554 11.2378 11.2374L12.2985 12.2981ZM16.1367 2.80298L2.80337 16.1363L3.86403 17.197L17.1974 3.86364L16.1367 2.80298Z" fill="#858C95"/>
</svg>
