<svg width="48" height="48" viewBox="0 0 48 48" fill="none" xmlns="http://www.w3.org/2000/svg">
<g clip-path="url(#clip0_572_50723)">
<path d="M24 0L48 48H0L24 0Z" fill="#28E0D8"/>
<path d="M24.0013 37.16C21.3133 37.16 19.9693 36.1787 19.9693 34.216C19.9693 33.6293 20.1239 33.1067 20.4333 32.648C20.7533 32.1893 21.2066 31.864 21.7933 31.672C21.2599 31.4693 20.8706 31.1707 20.6253 30.776C20.3799 30.3707 20.2573 29.9387 20.2573 29.48C20.2573 28.5947 20.5613 27.8853 21.1693 27.352C21.7879 26.808 22.7319 26.536 24.0013 26.536C25.3026 26.536 26.2519 26.808 26.8493 27.352C27.4466 27.8853 27.7453 28.5947 27.7453 29.48C27.7453 29.9707 27.6226 30.4293 27.3773 30.856C27.1426 31.272 26.7266 31.592 26.1293 31.816C26.7906 32.008 27.2706 32.3067 27.5693 32.712C27.8679 33.1067 28.0173 33.608 28.0173 34.216C28.0173 36.1787 26.6786 37.16 24.0013 37.16ZM24.4333 31.272C25.0199 31.1227 25.4466 30.92 25.7133 30.664C25.9906 30.408 26.1293 30.024 26.1293 29.512C26.1293 28.4453 25.4199 27.912 24.0013 27.912C23.3079 27.912 22.7799 28.04 22.4173 28.296C22.0546 28.552 21.8733 28.9573 21.8733 29.512C21.8733 30.3547 22.3479 30.8667 23.2973 31.048L24.4333 31.272ZM24.0013 35.8C24.8013 35.8 25.3986 35.672 25.7933 35.416C26.1986 35.1493 26.4013 34.7387 26.4013 34.184C26.4013 33.6827 26.2573 33.32 25.9693 33.096C25.6919 32.8613 25.2599 32.6853 24.6733 32.568L23.3613 32.296C22.8173 32.4133 22.3853 32.6107 22.0653 32.888C21.7453 33.1547 21.5853 33.576 21.5853 34.152C21.5853 34.728 21.7879 35.1493 22.1933 35.416C22.6093 35.672 23.2119 35.8 24.0013 35.8Z" fill="white"/>
</g>
<defs>
<clipPath id="clip0_572_50723">
<rect width="48" height="48" fill="white"/>
</clipPath>
</defs>
</svg>
