<svg width="48" height="48" viewBox="0 0 48 48" fill="none" xmlns="http://www.w3.org/2000/svg">
<rect width="48" height="48" rx="24" fill="#4473C5"/>
<path d="M23.4828 30.16C23.0241 30.16 22.5228 30.1227 21.9788 30.048C21.4348 29.9733 20.9815 29.856 20.6188 29.696V28.176C20.9921 28.336 21.4188 28.4587 21.8988 28.544C22.3788 28.6293 22.8321 28.672 23.2588 28.672C24.0801 28.672 24.6828 28.5333 25.0668 28.256C25.4615 27.968 25.6588 27.4987 25.6588 26.848C25.6588 26.2507 25.5201 25.808 25.2428 25.52C24.9655 25.232 24.4215 25.088 23.6108 25.088H20.5708V24.032L20.8428 19.696H26.6988L26.5548 21.04H22.3148L22.1388 23.744H23.8828C25.1095 23.744 26.0055 24.0053 26.5708 24.528C27.1361 25.0507 27.4188 25.8347 27.4188 26.88C27.4188 27.8933 27.0881 28.6933 26.4268 29.28C25.7655 29.8667 24.7841 30.16 23.4828 30.16Z" fill="white"/>
</svg>
