<svg width="48" height="48" viewBox="0 0 48 48" fill="none" xmlns="http://www.w3.org/2000/svg">
<g clip-path="url(#clip0_572_50603)">
<path d="M24 0L48 48H0L24 0Z" fill="#E572F0"/>
<path d="M23.5421 37.16C23.0194 37.16 22.5661 37.128 22.1821 37.064C21.7981 37 21.4354 36.9147 21.0941 36.808V35.304C21.4247 35.432 21.7767 35.528 22.1501 35.592C22.5341 35.656 22.9607 35.688 23.4301 35.688C24.3901 35.688 25.0994 35.4587 25.5581 35C26.0167 34.5413 26.2461 33.9333 26.2461 33.176V32.536C25.8727 32.8027 25.4461 33.0053 24.9661 33.144C24.4861 33.2827 24.0434 33.352 23.6381 33.352C22.4434 33.352 21.5527 33.0587 20.9661 32.472C20.3901 31.8853 20.1021 31.0533 20.1021 29.976C20.1021 28.9627 20.4167 28.136 21.0461 27.496C21.6754 26.856 22.6567 26.536 23.9901 26.536C25.2807 26.536 26.2514 26.8613 26.9021 27.512C27.5634 28.152 27.8941 29.1547 27.8941 30.52V32.84C27.8941 33.6933 27.7181 34.4453 27.3661 35.096C27.0141 35.7467 26.5127 36.2533 25.8621 36.616C25.2114 36.9787 24.4381 37.16 23.5421 37.16ZM23.8941 32.024C24.3314 32.024 24.7527 31.9493 25.1581 31.8C25.5634 31.6507 25.9261 31.464 26.2461 31.24V30.12C26.2461 28.616 25.4887 27.864 23.9741 27.864C23.2061 27.864 22.6301 28.0507 22.2461 28.424C21.8621 28.7973 21.6701 29.2987 21.6701 29.928C21.6701 30.5787 21.8247 31.0907 22.1341 31.464C22.4541 31.8373 23.0407 32.024 23.8941 32.024Z" fill="white"/>
</g>
<defs>
<clipPath id="clip0_572_50603">
<rect width="48" height="48" fill="white"/>
</clipPath>
</defs>
</svg>
