<svg width="48" height="48" viewBox="0 0 48 48" fill="none" xmlns="http://www.w3.org/2000/svg">
<rect width="48" height="48" rx="24" fill="#1C6D42"/>
<path d="M24.0061 30.16C22.7154 30.16 21.7394 29.84 21.0781 29.2C20.4274 28.56 20.1021 27.552 20.1021 26.176V23.856C20.1021 23.0027 20.2781 22.2507 20.6301 21.6C20.9821 20.9493 21.4834 20.4427 22.1341 20.08C22.7847 19.7173 23.5581 19.536 24.4541 19.536C24.9767 19.536 25.4301 19.568 25.8141 19.632C26.2087 19.696 26.5714 19.7867 26.9021 19.904V21.392C26.5714 21.2747 26.2141 21.184 25.8301 21.12C25.4567 21.056 25.0354 21.024 24.5661 21.024C23.6061 21.024 22.8967 21.2533 22.4381 21.712C21.9794 22.16 21.7501 22.7627 21.7501 23.52V24.16C22.1234 23.8827 22.5501 23.68 23.0301 23.552C23.5207 23.4133 23.9634 23.344 24.3581 23.344C25.5634 23.344 26.4541 23.6373 27.0301 24.224C27.6061 24.8107 27.8941 25.6427 27.8941 26.72C27.8941 27.744 27.5794 28.576 26.9501 29.216C26.3207 29.8453 25.3394 30.16 24.0061 30.16ZM24.0221 28.848C24.7901 28.848 25.3661 28.6613 25.7501 28.288C26.1341 27.9147 26.3261 27.4133 26.3261 26.784C26.3261 26.1227 26.1661 25.6107 25.8461 25.248C25.5367 24.8747 24.9554 24.688 24.1021 24.688C23.6754 24.688 23.2541 24.7627 22.8381 24.912C22.4327 25.0507 22.0701 25.2373 21.7501 25.472V26.576C21.7501 28.0907 22.5074 28.848 24.0221 28.848Z" fill="white"/>
</svg>
