<svg width="46" height="44" viewBox="0 0 46 44" fill="none" xmlns="http://www.w3.org/2000/svg">
<g clip-path="url(#clip0_572_37173)">
<path d="M22.8254 0L28.2137 16.5836H45.6507L31.5439 26.8328L37.3254 43.9954L22.8254 33.1672L8.71851 43.4164L14.1068 26.8328L0 16.5836H17.437L22.8254 0Z" fill="#AD8D55"/>
<path d="M17.5864 30V21.232L15.9224 21.52V20.064L19.3144 19.536V30H17.5864ZM25.5598 30.288C24.4718 30.288 23.5971 30.08 22.9358 29.664C22.2744 29.2373 21.7891 28.6293 21.4798 27.84C21.1811 27.04 21.0318 26.0853 21.0318 24.976C21.0318 23.824 21.1758 22.8427 21.4638 22.032C21.7624 21.2213 22.2424 20.6027 22.9038 20.176C23.5651 19.7493 24.4504 19.536 25.5598 19.536C26.6691 19.536 27.5491 19.7493 28.1998 20.176C28.8611 20.6027 29.3358 21.2213 29.6238 22.032C29.9224 22.8427 30.0718 23.824 30.0718 24.976C30.0718 26.0853 29.9224 27.04 29.6238 27.84C29.3251 28.6293 28.8451 29.2373 28.1838 29.664C27.5224 30.08 26.6478 30.288 25.5598 30.288ZM25.5598 28.8C26.5838 28.8 27.2984 28.464 27.7038 27.792C28.1091 27.1093 28.3118 26.1707 28.3118 24.976C28.3118 23.7067 28.1144 22.7307 27.7198 22.048C27.3251 21.3653 26.6051 21.024 25.5598 21.024C24.5144 21.024 23.7891 21.3653 23.3838 22.048C22.9891 22.7307 22.7918 23.7067 22.7918 24.976C22.7918 26.1707 22.9944 27.1093 23.3998 27.792C23.8051 28.464 24.5251 28.8 25.5598 28.8Z" fill="white"/>
</g>
<defs>
<clipPath id="clip0_572_37173">
<rect width="45.6507" height="43.9954" fill="white"/>
</clipPath>
</defs>
</svg>
