<svg width="48" height="48" viewBox="0 0 48 48" fill="none" xmlns="http://www.w3.org/2000/svg">
<rect width="48" height="48" fill="#7030A0"/>
<path d="M23.4676 30.16C23.1582 30.16 22.8169 30.1387 22.4436 30.096C22.0702 30.064 21.7129 30.0107 21.3716 29.936C21.0409 29.8613 20.7636 29.7813 20.5396 29.696V28.176C20.9662 28.3467 21.4036 28.4747 21.8516 28.56C22.3102 28.6347 22.7689 28.672 23.2276 28.672C24.0596 28.672 24.6782 28.5493 25.0836 28.304C25.4889 28.0587 25.6916 27.6267 25.6916 27.008C25.6916 26.4533 25.5049 26.0533 25.1316 25.808C24.7689 25.5627 24.2462 25.44 23.5636 25.44H22.0116L22.1556 24.144H23.4516C24.8062 24.144 25.4836 23.6107 25.4836 22.544C25.4836 22.0213 25.3022 21.6373 24.9396 21.392C24.5876 21.1467 24.0169 21.024 23.2276 21.024C22.7902 21.024 22.3476 21.0667 21.8996 21.152C21.4622 21.2373 21.0729 21.3547 20.7316 21.504V20.016C21.0516 19.888 21.4676 19.776 21.9796 19.68C22.4916 19.584 22.9982 19.536 23.4996 19.536C24.7582 19.536 25.6916 19.8027 26.2996 20.336C26.9182 20.8693 27.2276 21.552 27.2276 22.384C27.2276 22.896 27.0996 23.376 26.8436 23.824C26.5982 24.272 26.2089 24.592 25.6756 24.784C26.2942 24.944 26.7422 25.232 27.0196 25.648C27.3076 26.064 27.4516 26.5547 27.4516 27.12C27.4516 28.1547 27.0889 28.9227 26.3636 29.424C25.6382 29.9147 24.6729 30.16 23.4676 30.16Z" fill="white"/>
</svg>
