<svg width="48" height="48" viewBox="0 0 48 48" fill="none" xmlns="http://www.w3.org/2000/svg">
<rect width="48" height="48" fill="#01B0F1"/>
<path d="M20.6177 30V29.136C20.895 28.4853 21.279 27.8987 21.7697 27.376C22.271 26.8533 22.8044 26.3467 23.3697 25.856C23.7964 25.4827 24.1484 25.168 24.4257 24.912C24.7137 24.6453 24.9377 24.4053 25.0977 24.192C25.2577 23.9787 25.3697 23.76 25.4337 23.536C25.4977 23.3013 25.5297 23.0293 25.5297 22.72C25.5297 22.1653 25.3697 21.744 25.0497 21.456C24.7297 21.168 24.1964 21.024 23.4497 21.024C23.0444 21.024 22.6284 21.0667 22.2017 21.152C21.7857 21.2373 21.3857 21.3547 21.0017 21.504V19.968C21.375 19.84 21.8177 19.7387 22.3297 19.664C22.8417 19.5787 23.327 19.536 23.7857 19.536C24.9377 19.536 25.807 19.8187 26.3937 20.384C26.9804 20.9493 27.2737 21.7227 27.2737 22.704C27.2737 23.1947 27.1884 23.632 27.0177 24.016C26.847 24.3893 26.6124 24.7467 26.3137 25.088C26.015 25.4187 25.6684 25.76 25.2737 26.112C24.783 26.5387 24.319 26.9547 23.8817 27.36C23.455 27.7547 23.1084 28.1867 22.8417 28.656H27.3857V30H20.6177Z" fill="white"/>
</svg>
