<svg width="20" height="20" viewBox="0 0 20 20" fill="none" xmlns="http://www.w3.org/2000/svg">
<path d="M6.00016 18.3333V17.4983H6.00016L6.00016 18.3333ZM14.0002 18.3333V19.1683V18.3333ZM16.6668 15.6666H15.8318H16.6668ZM16.6668 4.33329H17.5018H16.6668ZM16.4852 2.57664L17.2292 2.19756L17.2292 2.19756L16.4852 2.57664ZM14.0002 1.66663L14.0002 0.831626L14.0002 1.66663ZM15.7568 1.84828L16.1359 1.10429L16.1359 1.10429L15.7568 1.84828ZM15.7568 18.1516L16.1359 18.8956L15.7568 18.1516ZM16.4852 17.4233L15.7412 17.0442L16.4852 17.4233ZM4.24351 18.1516L4.62259 17.4076H4.62259L4.24351 18.1516ZM3.3335 15.6666H2.4985H3.3335ZM3.51515 17.4233L4.25914 17.0442H4.25914L3.51515 17.4233ZM4.1685 6.66663C4.1685 6.20547 3.79465 5.83163 3.3335 5.83163C2.87234 5.83163 2.4985 6.20547 2.4985 6.66663L4.1685 6.66663ZM8.3335 0.831626C7.87234 0.831627 7.4985 1.20547 7.4985 1.66663C7.4985 2.12778 7.87234 2.50163 8.3335 2.50163V0.831626ZM3.47576 6.52437L2.88532 5.93393L3.47576 6.52437ZM8.19124 1.80889L8.78167 2.39932L8.19124 1.80889ZM3.53468 6.66663L3.53468 7.50163L3.53468 6.66663ZM7.50016 6.66663V5.83163V6.66663ZM8.3335 5.83329H7.4985H8.3335ZM8.3335 1.86781H9.1685V1.86781L8.3335 1.86781ZM6.66683 9.16496C6.20567 9.16496 5.83183 9.5388 5.83183 9.99996C5.83183 10.4611 6.20567 10.835 6.66683 10.835V9.16496ZM13.3335 10.835C13.7947 10.835 14.1685 10.4611 14.1685 9.99996C14.1685 9.5388 13.7947 9.16496 13.3335 9.16496V10.835ZM11.6668 5.83163C11.2057 5.83163 10.8318 6.20547 10.8318 6.66663C10.8318 7.12778 11.2057 7.50163 11.6668 7.50163V5.83163ZM13.3335 7.50163C13.7947 7.50163 14.1685 7.12778 14.1685 6.66663C14.1685 6.20547 13.7947 5.83163 13.3335 5.83163V7.50163ZM6.66683 12.4983C6.20567 12.4983 5.83183 12.8721 5.83183 13.3333C5.83183 13.7945 6.20567 14.1683 6.66683 14.1683V12.4983ZM13.3335 14.1683C13.7947 14.1683 14.1685 13.7945 14.1685 13.3333C14.1685 12.8721 13.7947 12.4983 13.3335 12.4983V14.1683ZM6.00016 19.1683H14.0002V17.4983H6.00016V19.1683ZM17.5018 15.6666V4.33329H15.8318V15.6666H17.5018ZM17.5018 4.33329C17.5018 3.88036 17.5025 3.49044 17.4763 3.17063C17.4494 2.84108 17.39 2.51315 17.2292 2.19756L15.7412 2.95572C15.762 2.99665 15.7934 3.08034 15.8119 3.30662C15.8312 3.54266 15.8318 3.8528 15.8318 4.33329L17.5018 4.33329ZM14.0002 2.50163C14.4807 2.50163 14.7908 2.50228 15.0268 2.52156C15.2531 2.54005 15.3368 2.57142 15.3777 2.59227L16.1359 1.10429C15.8203 0.94349 15.4924 0.884032 15.1628 0.857106C14.843 0.830977 14.4531 0.831626 14.0002 0.831626L14.0002 2.50163ZM17.2292 2.19756C16.9893 1.72684 16.6066 1.34413 16.1359 1.10429L15.3777 2.59227C15.5342 2.67201 15.6615 2.79924 15.7412 2.95572L17.2292 2.19756ZM14.0002 19.1683C14.4531 19.1683 14.843 19.1689 15.1628 19.1428C15.4924 19.1159 15.8203 19.0564 16.1359 18.8956L15.3777 17.4076C15.3368 17.4285 15.2531 17.4599 15.0268 17.4784C14.7908 17.4976 14.4807 17.4983 14.0002 17.4983V19.1683ZM15.8318 15.6666C15.8318 16.1471 15.8312 16.4573 15.8119 16.6933C15.7934 16.9196 15.762 17.0033 15.7412 17.0442L17.2292 17.8024C17.39 17.4868 17.4494 17.1588 17.4764 16.8293C17.5025 16.5095 17.5018 16.1196 17.5018 15.6666H15.8318ZM16.1359 18.8956C16.6066 18.6558 16.9893 18.2731 17.2292 17.8024L15.7412 17.0442C15.6614 17.2007 15.5342 17.3279 15.3777 17.4076L16.1359 18.8956ZM6.00016 17.4983C5.51967 17.4983 5.20953 17.4976 4.9735 17.4784C4.74721 17.4599 4.66352 17.4285 4.62259 17.4076L3.86443 18.8956C4.18002 19.0564 4.50795 19.1159 4.83751 19.1428C5.15732 19.1689 5.54723 19.1683 6.00016 19.1683L6.00016 17.4983ZM2.4985 15.6666C2.4985 16.1196 2.49785 16.5095 2.52398 16.8293C2.5509 17.1588 2.61036 17.4868 2.77116 17.8024L4.25914 17.0442C4.23829 17.0033 4.20692 16.9196 4.18843 16.6933C4.16915 16.4573 4.1685 16.1471 4.1685 15.6666H2.4985ZM4.62259 17.4076C4.46611 17.3279 4.33888 17.2007 4.25914 17.0442L2.77116 17.8024C3.01101 18.2731 3.39371 18.6558 3.86443 18.8956L4.62259 17.4076ZM2.4985 6.66663L2.4985 15.6666H4.1685L4.1685 6.66663L2.4985 6.66663ZM14.0002 0.831626L8.3335 0.831626V2.50163L14.0002 2.50163L14.0002 0.831626ZM4.06619 7.1148L8.78167 2.39932L7.6008 1.21845L2.88532 5.93393L4.06619 7.1148ZM3.53468 7.50163L7.50016 7.50163V5.83163L3.53468 5.83163L3.53468 7.50163ZM9.1685 5.83329V1.86781H7.4985V5.83329H9.1685ZM7.50016 7.50163C8.42156 7.50163 9.1685 6.75469 9.1685 5.83329L7.4985 5.83329C7.4985 5.8346 7.4984 5.83375 7.49897 5.83239C7.49931 5.83159 7.49944 5.83166 7.49899 5.83212C7.49853 5.83257 7.49846 5.83244 7.49926 5.8321C7.50062 5.83153 7.50147 5.83163 7.50016 5.83163V7.50163ZM8.78167 2.39932C8.30815 2.87284 7.4985 2.53748 7.4985 1.86781L9.1685 1.86781C9.1685 1.04966 8.17932 0.639936 7.6008 1.21845L8.78167 2.39932ZM2.88532 5.93393C2.3068 6.51245 2.71653 7.50163 3.53468 7.50163L3.53468 5.83163C4.20434 5.83163 4.53971 6.64128 4.06619 7.1148L2.88532 5.93393ZM6.66683 10.835H13.3335V9.16496H6.66683V10.835ZM11.6668 7.50163H13.3335V5.83163H11.6668V7.50163ZM6.66683 14.1683H13.3335V12.4983H6.66683V14.1683Z" fill="#026735"/>
</svg>
