<svg width="20" height="20" viewBox="0 0 20 20" fill="none" xmlns="http://www.w3.org/2000/svg">
<path d="M7.4985 10C7.4985 10.4612 7.87234 10.835 8.3335 10.835C8.79465 10.835 9.1685 10.4612 9.1685 10H7.4985ZM9.1685 6.66671C9.1685 6.20555 8.79465 5.83171 8.3335 5.83171C7.87234 5.83171 7.4985 6.20555 7.4985 6.66671H9.1685ZM10.8318 13.3334C10.8318 13.7945 11.2057 14.1684 11.6668 14.1684C12.128 14.1684 12.5018 13.7945 12.5018 13.3334L10.8318 13.3334ZM12.5018 6.66671C12.5018 6.20555 12.128 5.83171 11.6668 5.83171C11.2057 5.83171 10.8318 6.20555 10.8318 6.66671H12.5018ZM14.1652 13.3334C14.1652 13.7945 14.539 14.1684 15.0002 14.1684C15.4613 14.1684 15.8352 13.7945 15.8352 13.3334H14.1652ZM15.8352 8.33337C15.8352 7.87222 15.4613 7.49837 15.0002 7.49837C14.539 7.49837 14.1652 7.87222 14.1652 8.33337H15.8352ZM0.831829 8.33337C0.831829 8.79453 1.20567 9.16837 1.66683 9.16837C2.12799 9.16837 2.50183 8.79453 2.50183 8.33337H0.831829ZM10.0002 15.8317C9.539 15.8317 9.16516 16.2056 9.16516 16.6667C9.16516 17.1279 9.539 17.5017 10.0002 17.5017V15.8317ZM4.9985 12.5C4.9985 12.9594 4.62615 13.3317 4.16683 13.3317V15.0017C5.54846 15.0017 6.6685 13.8817 6.6685 12.5H4.9985ZM4.16683 13.3317C3.70751 13.3317 3.33516 12.9594 3.33516 12.5H1.66516C1.66516 13.8817 2.7852 15.0017 4.16683 15.0017V13.3317ZM3.33516 12.5C3.33516 12.0407 3.70751 11.6684 4.16683 11.6684V9.99837C2.7852 9.99837 1.66516 11.1184 1.66516 12.5H3.33516ZM4.16683 11.6684C4.62615 11.6684 4.9985 12.0407 4.9985 12.5H6.6685C6.6685 11.1184 5.54846 9.99837 4.16683 9.99837V11.6684ZM7.49587 16.665H0.837786V18.335H7.49587V16.665ZM6.66516 17.4958C6.66516 17.0369 7.03711 16.665 7.49587 16.665V18.335C7.95937 18.335 8.33516 17.9593 8.33516 17.4958H6.66516ZM4.16683 15.0017C5.54565 15.0017 6.66516 16.1197 6.66516 17.4958H8.33516C8.33516 15.1946 6.46517 13.3317 4.16683 13.3317V15.0017ZM1.6685 17.4958C1.6685 16.1197 2.78801 15.0017 4.16683 15.0017V13.3317C1.86849 13.3317 -0.00150388 15.1946 -0.00150388 17.4958H1.6685ZM-0.00150388 17.4958C-0.00150388 17.9593 0.374256 18.335 0.837786 18.335V16.665C1.29658 16.665 1.6685 17.037 1.6685 17.4958H-0.00150388ZM9.1685 10V6.66671H7.4985V10H9.1685ZM12.5018 13.3334L12.5018 6.66671H10.8318L10.8318 13.3334L12.5018 13.3334ZM15.8352 13.3334V8.33337H14.1652V13.3334H15.8352ZM3.3335 4.16837H16.6668V2.49837H3.3335V4.16837ZM17.4985 5.00004V15H19.1685V5.00004H17.4985ZM17.4985 15C17.4985 15.4594 17.1261 15.8317 16.6668 15.8317V17.5017C18.0485 17.5017 19.1685 16.3817 19.1685 15H17.4985ZM16.6668 4.16837C17.1261 4.16837 17.4985 4.54072 17.4985 5.00004H19.1685C19.1685 3.61841 18.0485 2.49837 16.6668 2.49837V4.16837ZM3.3335 2.49837C1.95186 2.49837 0.831829 3.61841 0.831829 5.00004H2.50183C2.50183 4.54072 2.87418 4.16837 3.3335 4.16837V2.49837ZM2.50183 8.33337V5.00004H0.831829V8.33337H2.50183ZM16.6668 15.8317H10.0002V17.5017H16.6668V15.8317Z" fill="#026735"/>
</svg>
