<svg width="20" height="20" viewBox="0 0 20 20" fill="none" xmlns="http://www.w3.org/2000/svg">
<g clip-path="url(#clip0_396_9195)">
<path d="M3.10838 18.7126L3.48746 17.9686L3.48746 17.9686L3.10838 18.7126ZM1.28748 16.8917L2.03147 16.5126H2.03147L1.28748 16.8917ZM18.7125 16.8917L17.9685 16.5126H17.9685L18.7125 16.8917ZM16.8916 18.7126L16.5126 17.9686V17.9686L16.8916 18.7126ZM16.8916 1.28751L16.5126 2.0315V2.0315L16.8916 1.28751ZM18.7125 3.10841L17.9685 3.4875L17.9685 3.4875L18.7125 3.10841ZM3.10838 1.28751L3.48746 2.0315L3.10838 1.28751ZM1.28748 3.10841L2.03147 3.4875L1.28748 3.10841ZM9.16501 15C9.16501 15.4612 9.53885 15.835 10 15.835C10.4612 15.835 10.835 15.4612 10.835 15H9.16501ZM10.835 5.00004C10.835 4.53888 10.4612 4.16504 10 4.16504C9.53885 4.16504 9.16501 4.53888 9.16501 5.00004H10.835ZM4.99834 15C4.99834 15.4612 5.37219 15.835 5.83334 15.835C6.2945 15.835 6.66834 15.4612 6.66834 15H4.99834ZM6.66834 8.33337C6.66834 7.87222 6.2945 7.49837 5.83334 7.49837C5.37219 7.49837 4.99834 7.87222 4.99834 8.33337L6.66834 8.33337ZM13.3317 15C13.3317 15.4612 13.7055 15.835 14.1667 15.835C14.6278 15.835 15.0017 15.4612 15.0017 15H13.3317ZM15.0017 11.6667C15.0017 11.2055 14.6278 10.8317 14.1667 10.8317C13.7055 10.8317 13.3317 11.2055 13.3317 11.6667H15.0017ZM7.50001 1.66837H12.5V-0.00162596H7.50001V1.66837ZM18.3317 7.50004V12.5H20.0017V7.50004H18.3317ZM12.5 18.3317H7.50001V20.0017H12.5V18.3317ZM1.66834 12.5V7.50004H-0.00165647V12.5H1.66834ZM7.50001 18.3317C6.31946 18.3317 5.48426 18.3311 4.83135 18.2777C4.18818 18.2252 3.79578 18.1257 3.48746 17.9686L2.7293 19.4566C3.31228 19.7536 3.94892 19.8812 4.69536 19.9422C5.43205 20.0024 6.34701 20.0017 7.50001 20.0017V18.3317ZM-0.00165647 12.5C-0.00165647 13.653 -0.00230587 14.568 0.0578841 15.3047C0.11887 16.0511 0.246449 16.6878 0.543492 17.2707L2.03147 16.5126C1.87438 16.2043 1.77489 15.8119 1.72234 15.1687C1.66899 14.5158 1.66834 13.6806 1.66834 12.5H-0.00165647ZM3.48746 17.9686C2.86057 17.6492 2.35089 17.1395 2.03147 16.5126L0.543492 17.2707C1.02302 18.2119 1.78818 18.977 2.7293 19.4566L3.48746 17.9686ZM18.3317 12.5C18.3317 13.6806 18.331 14.5158 18.2777 15.1687C18.2251 15.8119 18.1256 16.2043 17.9685 16.5126L19.4565 17.2707C19.7536 16.6878 19.8811 16.0511 19.9421 15.3047C20.0023 14.568 20.0017 13.653 20.0017 12.5H18.3317ZM12.5 20.0017C13.653 20.0017 14.568 20.0024 15.3047 19.9422C16.0511 19.8812 16.6877 19.7536 17.2707 19.4566L16.5126 17.9686C16.2042 18.1257 15.8118 18.2252 15.1687 18.2777C14.5158 18.3311 13.6806 18.3317 12.5 18.3317V20.0017ZM17.9685 16.5126C17.6491 17.1395 17.1394 17.6492 16.5126 17.9686L17.2707 19.4566C18.2118 18.977 18.977 18.2119 19.4565 17.2707L17.9685 16.5126ZM12.5 1.66837C13.6806 1.66837 14.5158 1.66902 15.1687 1.72237C15.8118 1.77492 16.2042 1.87441 16.5126 2.0315L17.2707 0.543523C16.6877 0.24648 16.0511 0.118901 15.3047 0.0579146C14.568 -0.00227535 13.653 -0.00162596 12.5 -0.00162596V1.66837ZM20.0017 7.50004C20.0017 6.34704 20.0023 5.43208 19.9421 4.69539C19.8811 3.94895 19.7536 3.31231 19.4565 2.72933L17.9685 3.4875C18.1256 3.79581 18.2251 4.18821 18.2777 4.83138C18.331 5.48429 18.3317 6.31949 18.3317 7.50004H20.0017ZM16.5126 2.0315C17.1394 2.35092 17.6491 2.8606 17.9685 3.4875L19.4565 2.72933C18.977 1.78821 18.2118 1.02305 17.2707 0.543523L16.5126 2.0315ZM7.50001 -0.00162596C6.34701 -0.00162596 5.43205 -0.00227535 4.69536 0.0579146C3.94892 0.118901 3.31228 0.24648 2.7293 0.543523L3.48746 2.0315C3.79578 1.87441 4.18818 1.77492 4.83135 1.72237C5.48426 1.66902 6.31946 1.66837 7.50001 1.66837V-0.00162596ZM1.66834 7.50004C1.66834 6.31949 1.66899 5.48429 1.72234 4.83138C1.77489 4.18821 1.87438 3.79581 2.03147 3.4875L0.543493 2.72933C0.246449 3.31231 0.11887 3.94895 0.0578841 4.69539C-0.00230587 5.43208 -0.00165647 6.34704 -0.00165647 7.50004H1.66834ZM2.7293 0.543523C1.78818 1.02305 1.02302 1.78821 0.543493 2.72933L2.03147 3.4875C2.35089 2.8606 2.86057 2.35092 3.48746 2.0315L2.7293 0.543523ZM10.835 15V5.00004H9.16501V15H10.835ZM6.66834 15L6.66834 8.33337L4.99834 8.33337L4.99834 15H6.66834ZM15.0017 15V11.6667H13.3317V15H15.0017Z" fill="#026735"/>
</g>
<defs>
<clipPath id="clip0_396_9195">
<rect width="20" height="20" fill="white"/>
</clipPath>
</defs>
</svg>
